# Blender 4.5.2 LTS
# www.blender.org
mtllib darts.mtl
o darts
v -0.000000 0.035198 -0.222230
v 0.030000 0.034354 -0.216904
v -0.000000 -0.035198 -0.222230
v 0.030000 -0.034354 -0.216904
v -0.000000 -0.102148 -0.200476
v 0.030000 -0.099700 -0.195672
v -0.000000 -0.159099 -0.159099
v 0.030000 -0.155286 -0.155286
v -0.000000 -0.200476 -0.102148
v 0.030000 -0.195672 -0.099700
v -0.000000 -0.222230 -0.035198
v 0.030000 -0.216904 -0.034354
v -0.000000 -0.222230 0.035198
v 0.030000 -0.216904 0.034354
v -0.000000 -0.200476 0.102148
v 0.030000 -0.195672 0.099700
v -0.000000 -0.159099 0.159099
v 0.030000 -0.155286 0.155286
v -0.000000 -0.102148 0.200476
v 0.030000 -0.099700 0.195672
v -0.000000 -0.035198 0.222230
v 0.030000 -0.034354 0.216904
v 0.000000 0.035198 0.222230
v 0.030000 0.034354 0.216904
v 0.000000 0.102148 0.200476
v 0.030000 0.099700 0.195672
v 0.000000 0.159099 0.159099
v 0.030000 0.155286 0.155286
v 0.000000 0.200476 0.102148
v 0.030000 0.195672 0.099700
v 0.000000 0.222230 0.035198
v 0.030000 0.216904 0.034354
v 0.000000 0.222230 -0.035198
v 0.030000 0.216904 -0.034354
v 0.000000 0.200476 -0.102148
v 0.030000 0.195672 -0.099700
v 0.000000 0.159099 -0.159099
v 0.030000 0.155286 -0.155286
v 0.000000 0.102148 -0.200476
v 0.030000 0.099700 -0.195672
v 0.030000 -0.035198 -0.222230
v 0.030000 0.035198 -0.222230
v 0.030000 -0.102148 -0.200476
v 0.030000 -0.159099 -0.159099
v 0.030000 -0.200476 -0.102148
v 0.030000 -0.222230 -0.035198
v 0.030000 -0.222230 0.035198
v 0.030000 -0.200476 0.102148
v 0.030000 -0.159099 0.159099
v 0.030000 -0.102148 0.200476
v 0.030000 -0.035198 0.222230
v 0.030000 0.035198 0.222230
v 0.030000 0.102148 0.200476
v 0.030000 0.159099 0.159099
v 0.030000 0.200476 0.102148
v 0.030000 0.222230 0.035198
v 0.030000 0.222230 -0.035198
v 0.030000 0.200476 -0.102148
v 0.030000 0.159099 -0.159099
v 0.030000 0.102148 -0.200476
v 0.022500 -0.001281 -0.008086
v 0.022500 0.001281 -0.008086
v 0.022500 -0.003717 -0.007294
v 0.022500 -0.005789 -0.005789
v 0.022500 -0.007294 -0.003717
v 0.022500 -0.008086 -0.001281
v 0.022500 -0.008086 0.001281
v 0.022500 -0.007294 0.003717
v 0.022500 -0.005789 0.005789
v 0.022500 -0.003717 0.007294
v 0.022500 -0.001281 0.008086
v 0.022500 0.001281 0.008086
v 0.022500 0.003717 0.007294
v 0.022500 0.005789 0.005789
v 0.022500 0.007294 0.003717
v 0.022500 0.008086 0.001281
v 0.022500 0.008086 -0.001281
v 0.022500 0.007294 -0.003717
v 0.022500 0.005789 -0.005789
v 0.022500 0.003717 -0.007294
v 0.022500 -0.034354 -0.216904
v 0.022500 0.034354 -0.216904
v 0.022500 -0.099700 -0.195672
v 0.022500 -0.155286 -0.155286
v 0.022500 -0.195672 -0.099700
v 0.022500 -0.216904 -0.034354
v 0.022500 -0.216904 0.034354
v 0.022500 -0.195672 0.099700
v 0.022500 -0.155286 0.155286
v 0.022500 -0.099700 0.195672
v 0.022500 -0.034354 0.216904
v 0.022500 0.034354 0.216904
v 0.022500 0.099700 0.195672
v 0.022500 0.155286 0.155286
v 0.022500 0.195672 0.099700
v 0.022500 0.216904 0.034354
v 0.022500 0.216904 -0.034354
v 0.022500 0.195672 -0.099700
v 0.022500 0.155286 -0.155286
v 0.022500 0.099700 -0.195672
v 0.022500 -0.027975 -0.176630
v 0.022500 0.027975 -0.176630
v 0.022500 -0.081188 -0.159340
v 0.022500 -0.126453 -0.126453
v 0.022500 -0.159340 -0.081188
v 0.022500 -0.176630 -0.027975
v 0.022500 -0.176630 0.027975
v 0.022500 -0.159340 0.081188
v 0.022500 -0.126453 0.126453
v 0.022500 -0.081188 0.159340
v 0.022500 -0.027975 0.176630
v 0.022500 0.027975 0.176630
v 0.022500 0.081188 0.159340
v 0.022500 0.126453 0.126453
v 0.022500 0.159340 0.081188
v 0.022500 0.176630 0.027975
v 0.022500 0.176630 -0.027975
v 0.022500 0.159340 -0.081188
v 0.022500 0.126453 -0.126453
v 0.022500 0.081188 -0.159340
v 0.022500 -0.025636 -0.161858
v 0.022500 0.025636 -0.161858
v 0.022500 -0.074398 -0.146014
v 0.022500 -0.115877 -0.115877
v 0.022500 -0.146014 -0.074398
v 0.022500 -0.161858 -0.025636
v 0.022500 -0.161858 0.025636
v 0.022500 -0.146014 0.074398
v 0.022500 -0.115877 0.115877
v 0.022500 -0.074398 0.146014
v 0.022500 -0.025636 0.161858
v 0.022500 0.025636 0.161858
v 0.022500 0.074398 0.146014
v 0.022500 0.115877 0.115877
v 0.022500 0.146014 0.074398
v 0.022500 0.161858 0.025636
v 0.022500 0.161858 -0.025636
v 0.022500 0.146014 -0.074398
v 0.022500 0.115877 -0.115877
v 0.022500 0.074398 -0.146014
v 0.022500 -0.016906 -0.106743
v 0.022500 0.016906 -0.106743
v 0.022500 -0.049064 -0.096294
v 0.022500 -0.076419 -0.076419
v 0.022500 -0.096294 -0.049064
v 0.022500 -0.106743 -0.016906
v 0.022500 -0.106743 0.016906
v 0.022500 -0.096294 0.049064
v 0.022500 -0.076419 0.076419
v 0.022500 -0.049064 0.096294
v 0.022500 -0.016906 0.106743
v 0.022500 0.016906 0.106743
v 0.022500 0.049064 0.096294
v 0.022500 0.076419 0.076419
v 0.022500 0.096294 0.049064
v 0.022500 0.106743 0.016906
v 0.022500 0.106743 -0.016906
v 0.022500 0.096294 -0.049064
v 0.022500 0.076419 -0.076419
v 0.022500 0.049064 -0.096294
v 0.022500 -0.014770 -0.093256
v 0.022500 0.014770 -0.093256
v 0.022500 -0.042865 -0.084127
v 0.022500 -0.066764 -0.066764
v 0.022500 -0.084127 -0.042865
v 0.022500 -0.093256 -0.014770
v 0.022500 -0.093256 0.014770
v 0.022500 -0.084127 0.042865
v 0.022500 -0.066764 0.066764
v 0.022500 -0.042865 0.084127
v 0.022500 -0.014770 0.093256
v 0.022500 0.014770 0.093256
v 0.022500 0.042865 0.084127
v 0.022500 0.066764 0.066764
v 0.022500 0.084127 0.042865
v 0.022500 0.093256 0.014770
v 0.022500 0.093256 -0.014770
v 0.022500 0.084127 -0.042865
v 0.022500 0.066764 -0.066764
v 0.022500 0.042865 -0.084127
v 0.022500 -0.002904 -0.018335
v 0.022500 0.002904 -0.018335
v 0.022500 -0.008428 -0.016541
v 0.022500 -0.013127 -0.013127
v 0.022500 -0.016541 -0.008428
v 0.022500 -0.018335 -0.002904
v 0.022500 -0.018335 0.002904
v 0.022500 -0.016541 0.008428
v 0.022500 -0.013127 0.013127
v 0.022500 -0.008428 0.016541
v 0.022500 -0.002904 0.018335
v 0.022500 0.002904 0.018335
v 0.022500 0.008428 0.016541
v 0.022500 0.013127 0.013127
v 0.022500 0.016541 0.008428
v 0.022500 0.018335 0.002904
v 0.022500 0.018335 -0.002904
v 0.022500 0.016541 -0.008428
v 0.022500 0.013127 -0.013127
v 0.022500 0.008428 -0.016541
vn -0.0000 0.1564 -0.9877
vn -0.0000 -0.1564 -0.9877
vn -0.0000 -0.4540 -0.8910
vn -0.0000 -0.7071 -0.7071
vn -0.0000 -0.8910 -0.4540
vn -0.0000 -0.9877 -0.1564
vn -0.0000 -0.9877 0.1564
vn -0.0000 -0.8910 0.4540
vn -0.0000 -0.7071 0.7071
vn -0.0000 -0.4540 0.8910
vn -0.0000 -0.1564 0.9877
vn -0.0000 0.1564 0.9877
vn -0.0000 0.4540 0.8910
vn -0.0000 0.7071 0.7071
vn -0.0000 0.8910 0.4540
vn -0.0000 0.9877 0.1564
vn -0.0000 0.9877 -0.1564
vn -0.0000 0.8910 -0.4540
vn -0.0000 0.7071 -0.7071
vn -0.0000 0.4540 -0.8910
vn -1.0000 -0.0000 -0.0000
vn 1.0000 -0.0000 -0.0000
vt 1.000000 0.500000
vt 1.000000 1.000000
vt 0.950000 1.000000
vt 0.950000 0.500000
vt 0.900000 1.000000
vt 0.900000 0.500000
vt 0.850000 1.000000
vt 0.850000 0.500000
vt 0.800000 1.000000
vt 0.800000 0.500000
vt 0.750000 1.000000
vt 0.750000 0.500000
vt 0.700000 1.000000
vt 0.700000 0.500000
vt 0.650000 1.000000
vt 0.650000 0.500000
vt 0.600000 1.000000
vt 0.600000 0.500000
vt 0.550000 1.000000
vt 0.550000 0.500000
vt 0.500000 1.000000
vt 0.500000 0.500000
vt 0.450000 1.000000
vt 0.450000 0.500000
vt 0.400000 1.000000
vt 0.400000 0.500000
vt 0.350000 1.000000
vt 0.350000 0.500000
vt 0.300000 1.000000
vt 0.300000 0.500000
vt 0.250000 1.000000
vt 0.250000 0.500000
vt 0.200000 1.000000
vt 0.200000 0.500000
vt 0.150000 1.000000
vt 0.150000 0.500000
vt 0.100000 1.000000
vt 0.100000 0.500000
vt 0.112312 0.060489
vt 0.177613 0.027216
vt 0.050000 1.000000
vt 0.050000 0.500000
vt -0.000000 1.000000
vt -0.000000 0.500000
vt 0.750000 0.490000
vt 0.824164 0.478254
vt 0.891068 0.444164
vt 0.944164 0.391068
vt 0.978254 0.324164
vt 0.990000 0.250000
vt 0.978254 0.175836
vt 0.944164 0.108932
vt 0.891068 0.055836
vt 0.824164 0.021746
vt 0.750000 0.010000
vt 0.675836 0.021746
vt 0.608932 0.055836
vt 0.555836 0.108932
vt 0.521746 0.175836
vt 0.510000 0.250000
vt 0.521746 0.324164
vt 0.555836 0.391068
vt 0.608932 0.444164
vt 0.675836 0.478254
vt 0.250000 0.484249
vt 0.322387 0.472784
vt 0.324164 0.478254
vt 0.250000 0.490000
vt 0.387688 0.439511
vt 0.391068 0.444164
vt 0.439511 0.387688
vt 0.444164 0.391068
vt 0.472784 0.322387
vt 0.478254 0.324164
vt 0.484249 0.250000
vt 0.490000 0.250000
vt 0.472784 0.177613
vt 0.478254 0.175836
vt 0.439511 0.112312
vt 0.444164 0.108932
vt 0.387688 0.060489
vt 0.391068 0.055836
vt 0.322387 0.027216
vt 0.324164 0.021746
vt 0.250000 0.015751
vt 0.250000 0.010000
vt 0.175836 0.021746
vt 0.108932 0.055836
vt 0.060489 0.112312
vt 0.055836 0.108932
vt 0.027216 0.177613
vt 0.021746 0.175836
vt 0.015751 0.250000
vt 0.010000 0.250000
vt 0.027216 0.322387
vt 0.021746 0.324164
vt 0.060489 0.387688
vt 0.055836 0.391068
vt 0.112312 0.439511
vt 0.108932 0.444164
vt 0.177613 0.472784
vt 0.175836 0.478254
vt 0.502574 0.507536
vt 0.503345 0.512402
vt 0.501532 0.519501
vt 0.500338 0.521657
vt 0.496854 0.525141
vt 0.492464 0.527377
vt 0.487598 0.528148
vt 0.482732 0.527377
vt 0.478343 0.525141
vt 0.474859 0.521657
vt 0.472622 0.517268
vt 0.471852 0.512402
vt 0.472622 0.507536
vt 0.474859 0.503146
vt 0.478343 0.499662
vt 0.482732 0.497426
vt 0.487598 0.496655
vt 0.492464 0.497426
vt 0.496854 0.499662
vt 0.500338 0.503146
vt 0.824996 0.565840
vt 0.824996 0.458963
vt 0.901927 0.446778
vt 0.901927 0.578025
vt 0.791969 0.357317
vt 0.861369 0.321956
vt 0.729148 0.270852
vt 0.784225 0.215775
vt 0.642683 0.208031
vt 0.678044 0.138630
vt 0.541037 0.175004
vt 0.553222 0.098073
vt 0.434160 0.175004
vt 0.421975 0.098073
vt 0.332514 0.208031
vt 0.297152 0.138630
vt 0.246048 0.270852
vt 0.190972 0.215775
vt 0.183228 0.357317
vt 0.113827 0.321956
vt 0.150201 0.458963
vt 0.073270 0.446778
vt 0.150201 0.565840
vt 0.073270 0.578025
vt 0.183228 0.667486
vt 0.113827 0.702847
vt 0.246048 0.753951
vt 0.190972 0.809028
vt 0.332514 0.816772
vt 0.297152 0.886173
vt 0.434160 0.849799
vt 0.421975 0.926730
vt 0.541037 0.849799
vt 0.553222 0.926730
vt 0.642683 0.816772
vt 0.678044 0.886173
vt 0.729148 0.753951
vt 0.784225 0.809028
vt 0.791969 0.667486
vt 0.861370 0.702847
vt 0.796777 0.561371
vt 0.796777 0.463432
vt 0.766512 0.370288
vt 0.708946 0.291054
vt 0.629712 0.233487
vt 0.536567 0.203223
vt 0.438629 0.203223
vt 0.345485 0.233488
vt 0.266251 0.291054
vt 0.208684 0.370288
vt 0.178420 0.463432
vt 0.178420 0.561371
vt 0.208684 0.654515
vt 0.266251 0.733749
vt 0.345485 0.791316
vt 0.438629 0.821580
vt 0.536567 0.821580
vt 0.629712 0.791316
vt 0.708946 0.733749
vt 0.766512 0.654516
vt 0.691498 0.544696
vt 0.691497 0.480107
vt 0.671538 0.418679
vt 0.633574 0.366426
vt 0.581320 0.328462
vt 0.519893 0.308502
vt 0.455304 0.308502
vt 0.393876 0.328462
vt 0.341623 0.366426
vt 0.303658 0.418679
vt 0.283699 0.480107
vt 0.283699 0.544696
vt 0.303658 0.606124
vt 0.341623 0.658377
vt 0.393876 0.696342
vt 0.455304 0.716301
vt 0.519893 0.716301
vt 0.581320 0.696342
vt 0.633574 0.658377
vt 0.671538 0.606124
vt 0.665734 0.540616
vt 0.665734 0.484188
vt 0.648297 0.430522
vt 0.615129 0.384870
vt 0.569478 0.351703
vt 0.515812 0.334266
vt 0.459384 0.334266
vt 0.405718 0.351703
vt 0.360067 0.384870
vt 0.326900 0.430521
vt 0.309462 0.484188
vt 0.309462 0.540616
vt 0.326900 0.594282
vt 0.360067 0.639933
vt 0.405718 0.673100
vt 0.459384 0.690537
vt 0.515812 0.690537
vt 0.569478 0.673100
vt 0.615130 0.639933
vt 0.648297 0.594282
vt 0.522622 0.517949
vt 0.522622 0.506854
vt 0.519194 0.496303
vt 0.512673 0.487327
vt 0.503697 0.480806
vt 0.493146 0.477378
vt 0.482051 0.477378
vt 0.471500 0.480806
vt 0.462524 0.487327
vt 0.456003 0.496303
vt 0.452574 0.506854
vt 0.452574 0.517949
vt 0.456003 0.528500
vt 0.462524 0.537476
vt 0.471500 0.543997
vt 0.482051 0.547426
vt 0.493146 0.547426
vt 0.503697 0.543997
vt 0.512673 0.537476
vt 0.519194 0.528500
vt 0.503044 0.514848
vt 0.503044 0.509955
vt 0.501532 0.505302
vt 0.498656 0.501344
vt 0.494698 0.498468
vt 0.490045 0.496956
vt 0.485152 0.496956
vt 0.480499 0.498468
vt 0.476540 0.501344
vt 0.473665 0.505302
vt 0.472153 0.509955
vt 0.472153 0.514848
vt 0.473665 0.519501
vt 0.476540 0.523459
vt 0.480499 0.526335
vt 0.485152 0.527847
vt 0.490045 0.527847
vt 0.494698 0.526335
vt 0.498656 0.523459
s 1
usemtl black
f 1/1/1 42/2/1 41/3/2 3/4/2
f 3/4/2 41/3/2 43/5/3 5/6/3
f 5/6/3 43/5/3 44/7/4 7/8/4
f 7/8/4 44/7/4 45/9/5 9/10/5
f 9/10/5 45/9/5 46/11/6 11/12/6
f 11/12/6 46/11/6 47/13/7 13/14/7
f 13/14/7 47/13/7 48/15/8 15/16/8
f 15/16/8 48/15/8 49/17/9 17/18/9
f 17/18/9 49/17/9 50/19/10 19/20/10
f 19/20/10 50/19/10 51/21/11 21/22/11
f 21/22/11 51/21/11 52/23/12 23/24/12
f 23/24/12 52/23/12 53/25/13 25/26/13
f 25/26/13 53/25/13 54/27/14 27/28/14
f 27/28/14 54/27/14 55/29/15 29/30/15
f 29/30/15 55/29/15 56/31/16 31/32/16
f 31/32/16 56/31/16 57/33/17 33/34/17
f 33/34/17 57/33/17 58/35/18 35/36/18
f 35/36/18 58/35/18 59/37/19 37/38/19
f 26/39/3 24/40/2 92/40/2 93/39/3
f 37/38/19 59/37/19 60/41/20 39/42/20
f 39/42/20 60/41/20 42/43/1 1/44/1
f 1/45/21 3/46/21 5/47/21 7/48/21 9/49/21 11/50/21 13/51/21 15/52/21 17/53/21 19/54/21 21/55/21 23/56/21 25/57/21 27/58/21 29/59/21 31/60/21 33/61/21 35/62/21 37/63/21 39/64/21
f 2/65/22 4/66/22 41/67/22 42/68/22
f 4/66/22 6/69/22 43/70/22 41/67/22
f 6/69/22 8/71/22 44/72/22 43/70/22
f 8/71/22 10/73/22 45/74/22 44/72/22
f 10/73/22 12/75/22 46/76/22 45/74/22
f 12/75/22 14/77/22 47/78/22 46/76/22
f 14/77/22 16/79/22 48/80/22 47/78/22
f 16/79/22 18/81/22 49/82/22 48/80/22
f 18/81/22 20/83/22 50/84/22 49/82/22
f 20/83/22 22/85/22 51/86/22 50/84/22
f 22/85/22 24/40/22 52/87/22 51/86/22
f 24/40/22 26/39/22 53/88/22 52/87/22
f 26/39/22 28/89/22 54/90/22 53/88/22
f 28/89/22 30/91/22 55/92/22 54/90/22
f 30/91/22 32/93/22 56/94/22 55/92/22
f 32/93/22 34/95/22 57/96/22 56/94/22
f 34/95/22 36/97/22 58/98/22 57/96/22
f 36/97/22 38/99/22 59/100/22 58/98/22
f 38/99/22 40/101/22 60/102/22 59/100/22
f 40/101/22 2/65/22 42/68/22 60/102/22
f 12/75/16 10/73/15 85/73/15 86/75/16
f 2/65/11 40/101/10 100/101/10 82/65/11
f 28/89/4 26/39/3 93/39/3 94/89/4
f 14/77/17 12/75/16 86/75/16 87/77/17
f 30/91/5 28/89/4 94/89/4 95/91/5
f 16/79/18 14/77/17 87/77/17 88/79/18
f 32/93/6 30/91/5 95/91/5 96/93/6
f 18/81/19 16/79/18 88/79/18 89/81/19
f 4/66/12 2/65/11 82/65/11 81/66/12
f 34/95/7 32/93/6 96/93/6 97/95/7
f 20/83/20 18/81/19 89/81/19 90/83/20
f 6/69/13 4/66/12 81/66/12 83/69/13
f 36/97/8 34/95/7 97/95/7 98/97/8
f 22/85/1 20/83/20 90/83/20 91/85/1
f 8/71/14 6/69/13 83/69/13 84/71/14
f 38/99/9 36/97/8 98/97/8 99/99/9
f 24/40/2 22/85/1 91/85/1 92/40/2
f 10/73/15 8/71/14 84/71/14 85/73/15
f 40/101/10 38/99/9 99/99/9 100/101/10
usemtl darts
f 61/103/22 62/104/22 80/105/22 79/106/22 78/107/22 77/108/22 76/109/22 75/110/22 74/111/22 73/112/22 72/113/22 71/114/22 70/115/22 69/116/22 68/117/22 67/118/22 66/119/22 65/120/22 64/121/22 63/122/22
f 102/123/22 101/124/22 81/125/22 82/126/22
f 101/124/22 103/127/22 83/128/22 81/125/22
f 103/127/22 104/129/22 84/130/22 83/128/22
f 104/129/22 105/131/22 85/132/22 84/130/22
f 105/131/22 106/133/22 86/134/22 85/132/22
f 106/133/22 107/135/22 87/136/22 86/134/22
f 107/135/22 108/137/22 88/138/22 87/136/22
f 108/137/22 109/139/22 89/140/22 88/138/22
f 109/139/22 110/141/22 90/142/22 89/140/22
f 110/141/22 111/143/22 91/144/22 90/142/22
f 111/143/22 112/145/22 92/146/22 91/144/22
f 112/145/22 113/147/22 93/148/22 92/146/22
f 113/147/22 114/149/22 94/150/22 93/148/22
f 114/149/22 115/151/22 95/152/22 94/150/22
f 115/151/22 116/153/22 96/154/22 95/152/22
f 116/153/22 117/155/22 97/156/22 96/154/22
f 117/155/22 118/157/22 98/158/22 97/156/22
f 118/157/22 119/159/22 99/160/22 98/158/22
f 119/159/22 120/161/22 100/162/22 99/160/22
f 120/161/22 102/123/22 82/126/22 100/162/22
f 122/163/22 121/164/22 101/124/22 102/123/22
f 121/164/22 123/165/22 103/127/22 101/124/22
f 123/165/22 124/166/22 104/129/22 103/127/22
f 124/166/22 125/167/22 105/131/22 104/129/22
f 125/167/22 126/168/22 106/133/22 105/131/22
f 126/168/22 127/169/22 107/135/22 106/133/22
f 127/169/22 128/170/22 108/137/22 107/135/22
f 128/170/22 129/171/22 109/139/22 108/137/22
f 129/171/22 130/172/22 110/141/22 109/139/22
f 130/172/22 131/173/22 111/143/22 110/141/22
f 131/173/22 132/174/22 112/145/22 111/143/22
f 132/174/22 133/175/22 113/147/22 112/145/22
f 133/175/22 134/176/22 114/149/22 113/147/22
f 134/176/22 135/177/22 115/151/22 114/149/22
f 135/177/22 136/178/22 116/153/22 115/151/22
f 136/178/22 137/179/22 117/155/22 116/153/22
f 137/179/22 138/180/22 118/157/22 117/155/22
f 138/180/22 139/181/22 119/159/22 118/157/22
f 139/181/22 140/182/22 120/161/22 119/159/22
f 140/182/22 122/163/22 102/123/22 120/161/22
f 142/183/22 141/184/22 121/164/22 122/163/22
f 141/184/22 143/185/22 123/165/22 121/164/22
f 143/185/22 144/186/22 124/166/22 123/165/22
f 144/186/22 145/187/22 125/167/22 124/166/22
f 145/187/22 146/188/22 126/168/22 125/167/22
f 146/188/22 147/189/22 127/169/22 126/168/22
f 147/189/22 148/190/22 128/170/22 127/169/22
f 148/190/22 149/191/22 129/171/22 128/170/22
f 149/191/22 150/192/22 130/172/22 129/171/22
f 150/192/22 151/193/22 131/173/22 130/172/22
f 151/193/22 152/194/22 132/174/22 131/173/22
f 152/194/22 153/195/22 133/175/22 132/174/22
f 153/195/22 154/196/22 134/176/22 133/175/22
f 154/196/22 155/197/22 135/177/22 134/176/22
f 155/197/22 156/198/22 136/178/22 135/177/22
f 156/198/22 157/199/22 137/179/22 136/178/22
f 157/199/22 158/200/22 138/180/22 137/179/22
f 158/200/22 159/201/22 139/181/22 138/180/22
f 159/201/22 160/202/22 140/182/22 139/181/22
f 160/202/22 142/183/22 122/163/22 140/182/22
f 162/203/22 161/204/22 141/184/22 142/183/22
f 161/204/22 163/205/22 143/185/22 141/184/22
f 163/205/22 164/206/22 144/186/22 143/185/22
f 164/206/22 165/207/22 145/187/22 144/186/22
f 165/207/22 166/208/22 146/188/22 145/187/22
f 166/208/22 167/209/22 147/189/22 146/188/22
f 167/209/22 168/210/22 148/190/22 147/189/22
f 168/210/22 169/211/22 149/191/22 148/190/22
f 169/211/22 170/212/22 150/192/22 149/191/22
f 170/212/22 171/213/22 151/193/22 150/192/22
f 171/213/22 172/214/22 152/194/22 151/193/22
f 172/214/22 173/215/22 153/195/22 152/194/22
f 173/215/22 174/216/22 154/196/22 153/195/22
f 174/216/22 175/217/22 155/197/22 154/196/22
f 175/217/22 176/218/22 156/198/22 155/197/22
f 176/218/22 177/219/22 157/199/22 156/198/22
f 177/219/22 178/220/22 158/200/22 157/199/22
f 178/220/22 179/221/22 159/201/22 158/200/22
f 179/221/22 180/222/22 160/202/22 159/201/22
f 180/222/22 162/203/22 142/183/22 160/202/22
f 182/223/22 181/224/22 161/204/22 162/203/22
f 181/224/22 183/225/22 163/205/22 161/204/22
f 183/225/22 184/226/22 164/206/22 163/205/22
f 184/226/22 185/227/22 165/207/22 164/206/22
f 185/227/22 186/228/22 166/208/22 165/207/22
f 186/228/22 187/229/22 167/209/22 166/208/22
f 187/229/22 188/230/22 168/210/22 167/209/22
f 188/230/22 189/231/22 169/211/22 168/210/22
f 189/231/22 190/232/22 170/212/22 169/211/22
f 190/232/22 191/233/22 171/213/22 170/212/22
f 191/233/22 192/234/22 172/214/22 171/213/22
f 192/234/22 193/235/22 173/215/22 172/214/22
f 193/235/22 194/236/22 174/216/22 173/215/22
f 194/236/22 195/237/22 175/217/22 174/216/22
f 195/237/22 196/238/22 176/218/22 175/217/22
f 196/238/22 197/239/22 177/219/22 176/218/22
f 197/239/22 198/240/22 178/220/22 177/219/22
f 198/240/22 199/241/22 179/221/22 178/220/22
f 199/241/22 200/242/22 180/222/22 179/221/22
f 200/242/22 182/223/22 162/203/22 180/222/22
f 62/243/22 61/244/22 181/224/22 182/223/22
f 61/244/22 63/245/22 183/225/22 181/224/22
f 63/245/22 64/246/22 184/226/22 183/225/22
f 64/246/22 65/247/22 185/227/22 184/226/22
f 65/247/22 66/248/22 186/228/22 185/227/22
f 66/248/22 67/249/22 187/229/22 186/228/22
f 67/249/22 68/250/22 188/230/22 187/229/22
f 68/250/22 69/251/22 189/231/22 188/230/22
f 69/251/22 70/252/22 190/232/22 189/231/22
f 70/252/22 71/253/22 191/233/22 190/232/22
f 71/253/22 72/254/22 192/234/22 191/233/22
f 72/254/22 73/255/22 193/235/22 192/234/22
f 73/255/22 74/256/22 194/236/22 193/235/22
f 74/256/22 75/257/22 195/237/22 194/236/22
f 75/257/22 76/258/22 196/238/22 195/237/22
f 76/258/22 77/259/22 197/239/22 196/238/22
f 77/259/22 78/260/22 198/240/22 197/239/22
f 78/260/22 79/261/22 199/241/22 198/240/22
f 79/261/22 80/105/22 200/242/22 199/241/22
f 80/105/22 62/243/22 182/223/22 200/242/22
